<?xml version="1.0" encoding="UTF-8"?>
<svg id="Capa_1" data-name="Capa 1" xmlns="http://www.w3.org/2000/svg" viewBox="0 0 133.08 145.84">
  <defs>
    <style>
      .cls-1 {
    fill: #ADA7B8;
    fill-opacity: 1;
  }
    </style>
  </defs>
  <g id="mouse-icon_2" data-name="mouse-icon 2">
    <g>
      <path class="cls-1" d="M132.38,71.82c-.81-4.96-2-11.17-4.17-15.6-2.23-3.5-5.19-13.18-10.59-8.98-.83.83-.57,1.96-.17,3.59.69,2.65,1.82,5.72,2.47,8.09,1.86,6.61,3.3,13.26,3.35,20.18.48,18.08-8.97,36.13-23.83,46.43-7.81,5.17-16.68,8.57-26.21,8.57-.92-.07-.37-1.01.04-1.6.97-1.36,1.99-2.63,2.73-4.13,3.41-6.59,5.17-14.11,5.17-21.27.07-5.7-1.4-11.42-2.29-16.98-.21-1.93-1.25-3.48.87-4.04,6.37-1.1,8.75-8.8,5.64-14.04-1.11-1.76-2.59-3.37-4.54-4.32-.87-.47-2.12-.87-2.29-1.96.11-3.03,2.34-6.47,3.82-9.26,1.62-2.27,5.04-5.08,7.4-6.89,2.83-2.01,6.95-3.3,9.04-5.88,7.51-8.96-9.09-19.11-16.08-22.53-2.69-1.58-6.04-1.69-8.79-2.97-1.52-1.14-1.09-4.15-2.05-5.98-2.03-5.67-6.97-9.64-12.47-11.41-3-.46-6.41-.94-9.37.07-9.5,2.06-15.69,12.28-13.26,21.73,1.76,6.68,6.16,11.41,12.59,13.89.28.14.52.28.68.4.22.16.27.28.09.34-5.88.25-11.99-3.48-15.26-8.5-1.12-1.42-1.86-3.31-2.67-4.8-.95-1.18-1.9.07-3.04.75C13.07,35.43,2.56,53.83.68,73.2c-1.2,8.92.58,17.96,2.89,26.43,3.76,12.48,11.81,23.39,21.69,31.62,4.18,3.35,9.38,6.5,14.36,8.69,4.67,1.57,11.22,4.12,16.54,4.89,6.62.8,13.12,1.05,19.67.14,7.82-1.34,15.1-3.51,22.13-7.27,12.77-6.96,23.09-18.25,29.14-31.38,4.44-10.9,6.63-22.48,5.31-34.32l-.02-.18ZM79.08,28.12c6.6.01,6.11,10.9-.8,9.96-5.79-.64-5.31-10.02.59-9.96h.21Z"/>
      <path class="cls-1" d="M67.14,145.84c-3.4,0-7.03-.24-11.02-.72-4.3-.62-9.48-2.43-13.64-3.88-1.04-.36-2.04-.71-2.96-1.02-4.98-2.19-10.24-5.37-14.45-8.74-10.67-8.89-18.2-19.87-21.78-31.77-2.02-7.39-4.17-17.09-2.9-26.55,1.93-19.86,12.65-38.06,28.66-48.69.26-.16.5-.33.73-.5.8-.59,1.79-1.33,2.7-.19.28.5.52.99.76,1.49.56,1.15,1.14,2.34,1.9,3.31,3.27,5.01,9.15,8.39,14.48,8.4-.11-.06-.23-.13-.36-.19-6.57-2.53-10.98-7.41-12.74-14.08-1.19-4.63-.37-9.73,2.26-13.97,2.58-4.18,6.67-7.14,11.23-8.13,3.08-1.06,6.78-.49,9.48-.07,6.07,1.96,10.8,6.29,12.7,11.61.4.76.57,1.75.73,2.71.22,1.3.42,2.54,1.22,3.13,1.15.53,2.51.87,3.83,1.2,1.67.42,3.41.85,4.93,1.75,2.69,1.32,16.27,8.34,17.96,16.35.5,2.37-.11,4.6-1.81,6.63-1.35,1.66-3.51,2.8-5.61,3.9-1.21.63-2.45,1.29-3.49,2.03-2.48,1.91-5.78,4.65-7.33,6.82-.24.45-.52.96-.8,1.48-1.35,2.43-2.87,5.19-2.96,7.63.11.69.88,1.06,1.63,1.43.18.09.35.17.51.26,1.77.86,3.34,2.35,4.65,4.42,1.7,2.85,1.87,6.51.47,9.56-1.24,2.7-3.48,4.45-6.31,4.94-1.26.33-1.17.97-.86,2.38.09.4.19.86.24,1.34.23,1.44.51,2.93.78,4.38.77,4.13,1.57,8.4,1.51,12.64,0,7.33-1.86,14.93-5.21,21.4-.61,1.23-1.41,2.33-2.19,3.39-.19.26-.38.52-.56.78-.56.8-.5,1.03-.48,1.06.01.03.09.06.22.07,8.73,0,17.49-2.87,26.03-8.52,14.86-10.3,24.16-28.42,23.7-46.17-.05-7.48-1.81-14.67-3.34-20.1-.29-1.06-.68-2.26-1.09-3.52-.49-1.53-1-3.11-1.39-4.57-.41-1.63-.73-2.91.24-3.88,1.23-.96,2.41-1.3,3.55-1.04,2.67.61,4.56,4.38,6.08,7.41.51,1.01.99,1.97,1.43,2.66,2.17,4.43,3.35,10.42,4.21,15.71,0,0,0,0,0,0l.03.18c1.24,11.15-.56,22.75-5.33,34.47-6.19,13.42-16.58,24.62-29.27,31.53-6.56,3.5-13.62,5.82-22.22,7.3-2.8.39-5.67.58-8.73.58ZM31.4,23.77c-.32,0-.7.25-1.28.68-.25.18-.5.37-.77.53C13.5,35.49,2.89,53.53.97,73.23c-1.26,9.37.88,18.99,2.88,26.32,3.55,11.77,11.02,22.66,21.59,31.47,4.17,3.34,9.38,6.49,14.29,8.64.9.3,1.89.65,2.94,1.01,4.14,1.45,9.28,3.24,13.52,3.85,7.51.91,13.74.96,19.58.14,8.53-1.46,15.53-3.76,22.03-7.23,12.58-6.85,22.88-17.95,29.01-31.24,4.73-11.62,6.51-23.12,5.29-34.16l-.02-.16c-.81-4.93-2.01-11.15-4.14-15.51-.44-.69-.92-1.66-1.44-2.69-1.46-2.92-3.28-6.55-5.68-7.1-.97-.22-1.96.08-3.02.9-.67.67-.47,1.64-.06,3.28.38,1.44.88,3.02,1.38,4.54.41,1.27.8,2.47,1.09,3.55,1.54,5.47,3.31,12.71,3.36,20.25.47,17.94-8.93,36.26-23.96,46.67-8.64,5.72-17.51,8.62-26.38,8.62-.47-.04-.65-.24-.73-.41-.22-.46.14-1.1.53-1.66.19-.27.38-.53.57-.79.8-1.09,1.55-2.12,2.14-3.31,3.31-6.4,5.13-13.9,5.14-21.14.05-4.18-.74-8.42-1.5-12.53-.27-1.45-.55-2.95-.78-4.41-.05-.46-.14-.88-.23-1.29-.28-1.27-.57-2.59,1.32-3.09,2.65-.46,4.73-2.09,5.89-4.6,1.32-2.87,1.16-6.32-.44-9-1.25-1.97-2.73-3.39-4.41-4.2-.17-.09-.33-.17-.5-.25-.8-.39-1.8-.88-1.96-1.93.09-2.63,1.65-5.46,3.03-7.95.29-.52.56-1.02.82-1.5,1.62-2.27,4.96-5.05,7.49-6.99,1.08-.77,2.34-1.43,3.57-2.07,2.04-1.07,4.15-2.18,5.42-3.76,1.58-1.89,2.15-3.95,1.69-6.13-1.27-6-10.31-12.34-17.66-15.95-1.47-.86-3.16-1.29-4.79-1.7-1.34-.34-2.74-.69-3.99-1.27-1.04-.77-1.28-2.18-1.5-3.54-.15-.91-.31-1.85-.68-2.56-1.86-5.18-6.45-9.38-12.3-11.27-2.74-.42-6.21-.95-9.18.07-4.43.96-8.39,3.83-10.88,7.87-2.54,4.11-3.33,9.03-2.19,13.51,1.71,6.48,6,11.21,12.4,13.69.32.16.58.31.75.44.1.08.35.26.31.53-.01.09-.07.25-.29.33-.03.01-.06.02-.1.02-5.76.23-12-3.23-15.52-8.63-.79-.99-1.38-2.21-1.96-3.39-.24-.5-.48-.98-.72-1.43-.19-.23-.37-.34-.58-.34ZM50,37.24h0ZM79.11,38.43c-.28,0-.57-.02-.86-.06-3.19-.35-4.49-3.14-4.34-5.58.14-2.42,1.77-5.02,4.98-4.97h.2c1.95,0,3.49.91,4.34,2.56.97,1.88.81,4.38-.39,6.08-.91,1.29-2.29,1.98-3.93,1.98ZM78.83,28.41c-2.8,0-4.21,2.28-4.33,4.41-.13,2.17,1.01,4.64,3.82,4.95,1.8.24,3.3-.35,4.24-1.67,1.08-1.53,1.22-3.77.34-5.46-.74-1.44-2.1-2.23-3.81-2.23h-.26Z"/>
    </g>
  </g>
</svg>