<?xml version="1.0" encoding="UTF-8"?>
<svg xmlns="http://www.w3.org/2000/svg" width="1024" height="1024" viewBox="0 0 1024 1024">
  <path d="M 450.00 754.00 L 457.00 760.00 L 472.00 760.00 L 461.00 753.00 Z M 515.00 642.00 L 518.00 647.00 L 527.00 646.00 L 524.00 641.00 Z M 281.00 634.00 L 281.00 649.00 L 277.00 658.00 L 285.00 670.00 L 311.00 674.00 L 322.00 666.00 L 334.00 662.00 L 340.00 653.00 L 337.00 637.00 L 311.00 621.00 L 296.00 621.00 L 287.00 626.00 Z M 288.00 659.00 L 289.00 651.00 L 295.00 645.00 L 292.00 637.00 L 297.00 631.00 L 310.00 631.00 L 315.00 639.00 L 324.00 639.00 L 331.00 644.00 L 329.00 653.00 L 318.00 653.00 L 316.00 661.00 L 312.00 664.00 L 304.00 664.00 L 300.00 659.00 Z M 336.00 506.00 L 322.00 521.00 L 328.00 518.00 Z M 652.00 479.00 L 658.00 503.00 L 662.00 504.00 L 664.00 496.00 Z M 678.00 469.00 L 672.00 479.00 L 671.00 494.00 L 674.00 498.00 L 680.00 487.00 Z M 300.00 419.00 L 292.00 414.00 L 277.00 416.00 L 239.00 436.00 L 211.00 465.00 L 206.00 478.00 L 208.00 492.00 L 221.00 499.00 L 237.00 498.00 L 261.00 488.00 L 277.00 477.00 L 291.00 461.00 L 300.00 443.00 L 303.00 429.00 Z M 236.00 339.00 L 230.00 345.00 L 230.00 354.00 L 235.00 361.00 L 243.00 362.00 L 250.00 357.00 L 250.00 346.00 L 246.00 339.00 Z M 396.00 318.00 L 374.00 319.00 L 364.00 343.00 L 388.00 342.00 Z M 377.00 325.00 L 385.00 326.00 L 385.00 332.00 L 381.00 336.00 L 374.00 335.00 Z M 470.00 308.00 L 456.00 316.00 L 456.00 320.00 L 466.00 319.00 Z M 245.00 301.00 L 245.00 309.00 L 253.00 315.00 L 262.00 315.00 L 268.00 310.00 L 267.00 302.00 L 255.00 297.00 Z M 657.00 245.00 L 644.00 253.00 L 639.00 262.00 L 638.00 273.00 L 648.00 288.00 L 664.00 291.00 L 677.00 280.00 L 678.00 261.00 L 670.00 249.00 Z M 662.00 256.00 L 668.00 258.00 L 671.00 266.00 L 671.00 276.00 L 665.00 282.00 L 660.00 281.00 L 663.00 271.00 Z M 218.00 179.00 L 218.00 188.00 L 225.00 193.00 L 273.00 209.00 L 285.00 207.00 L 285.00 203.00 L 276.00 196.00 L 232.00 174.00 L 222.00 174.00 Z M 267.00 132.00 L 263.00 137.00 L 264.00 146.00 L 306.00 182.00 L 312.00 181.00 L 315.00 174.00 L 277.00 131.00 Z M 819.00 200.00 L 812.00 194.00 L 792.00 186.00 L 776.00 185.00 L 768.00 188.00 L 748.00 239.00 L 739.00 247.00 L 733.00 248.00 L 727.00 244.00 L 727.00 240.00 L 740.00 227.00 L 748.00 204.00 L 746.00 174.00 L 733.00 148.00 L 720.00 136.00 L 701.00 128.00 L 654.00 130.00 L 638.00 121.00 L 614.00 122.00 L 561.00 138.00 L 530.00 137.00 L 493.00 142.00 L 468.00 149.00 L 438.00 163.00 L 415.00 164.00 L 381.00 175.00 L 358.00 188.00 L 344.00 200.00 L 337.00 210.00 L 333.00 231.00 L 280.00 239.00 L 243.00 250.00 L 228.00 259.00 L 231.00 281.00 L 202.00 284.00 L 181.00 292.00 L 177.00 304.00 L 186.00 329.00 L 193.00 337.00 L 201.00 338.00 L 201.00 342.00 L 195.00 348.00 L 202.00 380.00 L 207.00 385.00 L 217.00 388.00 L 217.00 393.00 L 207.00 407.00 L 213.00 435.00 L 191.00 465.00 L 184.00 487.00 L 185.00 497.00 L 205.00 529.00 L 197.00 551.00 L 197.00 566.00 L 206.00 576.00 L 216.00 580.00 L 228.00 580.00 L 243.00 571.00 L 250.00 571.00 L 274.00 601.00 L 297.00 613.00 L 333.00 614.00 L 362.00 608.00 L 361.00 629.00 L 368.00 643.00 L 366.00 652.00 L 345.00 670.00 L 294.00 697.00 L 288.00 696.00 L 286.00 686.00 L 261.00 660.00 L 248.00 655.00 L 233.00 657.00 L 217.00 671.00 L 206.00 671.00 L 198.00 675.00 L 189.00 689.00 L 193.00 699.00 L 193.00 719.00 L 198.00 724.00 L 210.00 728.00 L 228.00 721.00 L 236.00 722.00 L 236.00 726.00 L 221.00 746.00 L 220.00 757.00 L 224.00 768.00 L 233.00 776.00 L 256.00 784.00 L 309.00 786.00 L 316.00 791.00 L 317.00 799.00 L 321.00 799.00 L 326.00 795.00 L 327.00 788.00 L 315.00 773.00 L 293.00 764.00 L 258.00 757.00 L 257.00 752.00 L 274.00 740.00 L 319.00 727.00 L 372.00 702.00 L 371.00 709.00 L 345.00 724.00 L 328.00 741.00 L 324.00 758.00 L 335.00 775.00 L 360.00 785.00 L 401.00 787.00 L 424.00 783.00 L 440.00 773.00 L 477.00 773.00 L 457.00 766.00 L 434.00 766.00 L 426.00 754.00 L 409.00 747.00 L 408.00 742.00 L 436.00 744.00 L 457.00 740.00 L 475.00 726.00 L 485.00 704.00 L 491.00 703.00 L 511.00 710.00 L 525.00 709.00 L 529.00 705.00 L 546.00 706.00 L 551.00 709.00 L 550.00 726.00 L 537.00 743.00 L 539.00 764.00 L 527.00 764.00 L 524.00 750.00 L 505.00 731.00 L 491.00 728.00 L 479.00 734.00 L 474.00 742.00 L 476.00 749.00 L 487.00 737.00 L 494.00 736.00 L 501.00 741.00 L 500.00 749.00 L 510.00 749.00 L 516.00 755.00 L 515.00 763.00 L 488.00 766.00 L 491.00 771.00 L 552.00 773.00 L 598.00 783.00 L 630.00 783.00 L 656.00 775.00 L 661.00 763.00 L 657.00 753.00 L 648.00 744.00 L 625.00 737.00 L 594.00 738.00 L 594.00 734.00 L 609.00 724.00 L 622.00 709.00 L 627.00 688.00 L 617.00 669.00 L 618.00 664.00 L 625.00 665.00 L 625.00 662.00 L 610.00 648.00 L 586.00 639.00 L 586.00 633.00 L 602.00 630.00 L 619.00 637.00 L 631.00 637.00 L 642.00 632.00 L 657.00 618.00 L 681.00 627.00 L 707.00 626.00 L 717.00 632.00 L 725.00 631.00 L 732.00 626.00 L 771.00 624.00 L 781.00 638.00 L 778.00 619.00 L 785.00 614.00 L 790.00 614.00 L 802.00 630.00 L 806.00 628.00 L 804.00 619.00 L 793.00 604.00 L 793.00 595.00 L 798.00 595.00 L 823.00 609.00 L 822.00 603.00 L 816.00 597.00 L 794.00 586.00 L 796.00 580.00 L 820.00 584.00 L 821.00 581.00 L 807.00 575.00 L 781.00 575.00 L 779.00 566.00 L 786.00 555.00 L 782.00 527.00 L 805.00 507.00 L 811.00 494.00 L 811.00 483.00 L 808.00 474.00 L 800.00 466.00 L 778.00 461.00 L 777.00 454.00 L 785.00 443.00 L 804.00 445.00 L 819.00 432.00 L 820.00 424.00 L 806.00 404.00 L 805.00 396.00 L 824.00 351.00 L 842.00 340.00 L 845.00 323.00 L 840.00 311.00 L 829.00 302.00 L 818.00 298.00 L 801.00 300.00 L 789.00 316.00 L 789.00 329.00 L 776.00 349.00 L 769.00 350.00 L 769.00 337.00 L 778.00 325.00 L 797.00 274.00 L 796.00 259.00 L 821.00 211.00 Z M 248.00 765.00 L 255.00 764.00 L 257.00 770.00 L 250.00 771.00 Z M 236.00 748.00 L 244.00 751.00 L 241.00 762.00 L 237.00 762.00 L 234.00 757.00 Z M 555.00 747.00 L 561.00 742.00 L 579.00 746.00 L 578.00 755.00 L 623.00 749.00 L 639.00 755.00 L 645.00 762.00 L 645.00 768.00 L 637.00 769.00 L 631.00 761.00 L 621.00 756.00 L 612.00 758.00 L 623.00 766.00 L 622.00 771.00 L 589.00 768.00 L 563.00 758.00 L 555.00 751.00 Z M 341.00 753.00 L 351.00 741.00 L 365.00 737.00 L 374.00 743.00 L 374.00 748.00 L 365.00 758.00 L 390.00 753.00 L 404.00 754.00 L 416.00 761.00 L 420.00 771.00 L 411.00 772.00 L 402.00 762.00 L 391.00 759.00 L 390.00 762.00 L 397.00 767.00 L 396.00 774.00 L 386.00 774.00 L 375.00 765.00 L 370.00 772.00 L 363.00 772.00 L 347.00 765.00 L 342.00 760.00 Z M 241.00 742.00 L 241.00 738.00 L 247.00 733.00 L 255.00 735.00 L 255.00 739.00 L 250.00 743.00 Z M 258.00 727.00 L 269.00 724.00 L 270.00 730.00 L 259.00 733.00 Z M 293.00 715.00 L 292.00 723.00 L 278.00 725.00 L 279.00 717.00 L 285.00 714.00 Z M 319.00 703.00 L 319.00 713.00 L 306.00 718.00 L 301.00 717.00 L 301.00 709.00 L 313.00 702.00 Z M 324.00 698.00 L 330.00 694.00 L 337.00 694.00 L 339.00 703.00 L 327.00 707.00 Z M 360.00 678.00 L 364.00 689.00 L 353.00 696.00 L 347.00 696.00 L 344.00 687.00 Z M 368.00 670.00 L 376.00 667.00 L 381.00 673.00 L 381.00 678.00 L 371.00 680.00 Z M 555.00 683.00 L 571.00 683.00 L 578.00 669.00 L 583.00 666.00 L 594.00 666.00 L 601.00 669.00 L 610.00 679.00 L 612.00 697.00 L 607.00 708.00 L 595.00 717.00 L 567.00 714.00 L 566.00 709.00 L 577.00 703.00 L 578.00 699.00 L 570.00 695.00 L 553.00 693.00 L 552.00 687.00 Z M 279.00 693.00 L 279.00 703.00 L 250.00 718.00 L 244.00 717.00 L 244.00 711.00 L 232.00 711.00 L 227.00 706.00 L 224.00 706.00 L 224.00 711.00 L 216.00 717.00 L 207.00 717.00 L 201.00 712.00 L 201.00 706.00 L 205.00 701.00 L 202.00 694.00 L 203.00 686.00 L 210.00 681.00 L 229.00 685.00 L 229.00 672.00 L 242.00 665.00 L 251.00 666.00 L 262.00 674.00 L 264.00 684.00 L 261.00 693.00 L 270.00 688.00 L 275.00 688.00 Z M 409.00 659.00 L 434.00 671.00 L 453.00 672.00 L 469.00 689.00 L 463.00 711.00 L 450.00 726.00 L 423.00 730.00 L 404.00 724.00 L 393.00 715.00 L 396.00 706.00 L 415.00 714.00 L 410.00 700.00 L 410.00 689.00 L 426.00 698.00 L 410.00 669.00 Z M 415.00 640.00 L 447.00 634.00 L 491.00 650.00 L 514.00 663.00 L 529.00 663.00 L 543.00 652.00 L 563.00 647.00 L 579.00 648.00 L 580.00 653.00 L 572.00 657.00 L 566.00 665.00 L 552.00 664.00 L 538.00 684.00 L 525.00 687.00 L 515.00 683.00 L 515.00 679.00 L 521.00 677.00 L 521.00 674.00 L 504.00 673.00 L 482.00 664.00 L 480.00 667.00 L 485.00 671.00 L 485.00 675.00 L 480.00 676.00 L 442.00 640.00 L 439.00 640.00 L 442.00 659.00 L 427.00 655.00 L 415.00 645.00 Z M 510.00 632.00 L 532.00 634.00 L 532.00 652.00 L 511.00 653.00 L 506.00 648.00 Z M 456.00 621.00 L 462.00 615.00 L 469.00 616.00 L 498.00 628.00 L 499.00 638.00 L 492.00 639.00 L 457.00 627.00 Z M 375.00 615.00 L 380.00 615.00 L 391.00 626.00 L 387.00 636.00 L 376.00 631.00 Z M 719.00 612.00 L 726.00 615.00 L 723.00 623.00 L 715.00 621.00 L 715.00 616.00 Z M 609.00 602.00 L 609.00 606.00 L 596.00 617.00 L 590.00 615.00 L 594.00 607.00 L 603.00 601.00 Z M 770.00 601.00 L 778.00 599.00 L 780.00 606.00 L 774.00 608.00 Z M 474.00 601.00 L 492.00 597.00 L 496.00 608.00 L 482.00 609.00 L 476.00 607.00 Z M 584.00 614.00 L 583.00 620.00 L 551.00 618.00 L 549.00 625.00 L 521.00 620.00 L 522.00 615.00 L 539.00 611.00 L 569.00 596.00 L 574.00 597.00 L 574.00 602.00 L 565.00 611.00 L 581.00 610.00 Z M 501.00 595.00 L 512.00 593.00 L 519.00 600.00 L 519.00 604.00 L 507.00 606.00 Z M 593.00 589.00 L 596.00 598.00 L 585.00 603.00 L 587.00 590.00 Z M 685.00 593.00 L 693.00 587.00 L 700.00 588.00 L 708.00 597.00 L 710.00 607.00 L 702.00 609.00 L 686.00 598.00 Z M 388.00 604.00 L 411.00 587.00 L 416.00 587.00 L 426.00 604.00 L 436.00 614.00 L 436.00 618.00 L 423.00 622.00 L 407.00 622.00 L 390.00 610.00 Z M 536.00 584.00 L 538.00 596.00 L 526.00 599.00 L 521.00 594.00 L 521.00 589.00 Z M 671.00 584.00 L 681.00 582.00 L 684.00 593.00 L 674.00 591.00 Z M 427.00 578.00 L 432.00 579.00 L 450.00 602.00 L 449.00 608.00 L 442.00 609.00 L 432.00 599.00 L 425.00 586.00 Z M 316.00 579.00 L 328.00 576.00 L 340.00 589.00 L 340.00 593.00 L 326.00 591.00 L 316.00 583.00 Z M 560.00 573.00 L 559.00 587.00 L 546.00 592.00 L 543.00 581.00 Z M 286.00 573.00 L 293.00 572.00 L 308.00 589.00 L 308.00 593.00 L 303.00 594.00 L 286.00 578.00 Z M 583.00 567.00 L 583.00 574.00 L 572.00 584.00 L 567.00 584.00 L 568.00 573.00 L 574.00 568.00 Z M 339.00 569.00 L 344.00 563.00 L 348.00 563.00 L 363.00 579.00 L 384.00 584.00 L 385.00 589.00 L 379.00 592.00 L 366.00 592.00 L 356.00 588.00 L 340.00 575.00 Z M 320.00 558.00 L 321.00 568.00 L 316.00 577.00 L 311.00 578.00 L 304.00 571.00 L 303.00 565.00 Z M 335.00 542.00 L 340.00 543.00 L 344.00 554.00 L 343.00 561.00 L 334.00 562.00 L 331.00 559.00 L 329.00 548.00 Z M 472.00 541.00 L 477.00 542.00 L 476.00 567.00 L 484.00 589.00 L 479.00 591.00 L 466.00 590.00 L 443.00 569.00 L 446.00 561.00 Z M 307.00 542.00 L 307.00 546.00 L 300.00 552.00 L 280.00 559.00 L 261.00 561.00 L 250.00 554.00 L 251.00 549.00 L 271.00 551.00 L 301.00 541.00 Z M 388.00 538.00 L 401.00 537.00 L 412.00 558.00 L 407.00 559.00 L 388.00 542.00 Z M 216.00 534.00 L 222.00 535.00 L 218.00 556.00 L 222.00 558.00 L 227.00 557.00 L 232.00 537.00 L 238.00 537.00 L 235.00 559.00 L 224.00 569.00 L 215.00 569.00 L 206.00 560.00 L 208.00 548.00 Z M 413.00 532.00 L 423.00 533.00 L 430.00 544.00 L 429.00 552.00 L 424.00 552.00 L 414.00 541.00 Z M 252.00 530.00 L 257.00 529.00 L 258.00 534.00 L 253.00 535.00 Z M 551.00 526.00 L 557.00 527.00 L 556.00 541.00 L 563.00 556.00 L 563.00 561.00 L 559.00 563.00 L 550.00 561.00 L 544.00 553.00 L 544.00 537.00 Z M 507.00 522.00 L 517.00 522.00 L 519.00 528.00 L 506.00 534.00 L 502.00 540.00 L 516.00 536.00 L 534.00 538.00 L 533.00 547.00 L 538.00 570.00 L 529.00 572.00 L 517.00 569.00 L 521.00 574.00 L 520.00 579.00 L 502.00 576.00 L 494.00 569.00 L 490.00 559.00 L 495.00 533.00 Z M 356.00 517.00 L 360.00 517.00 L 379.00 535.00 L 389.00 555.00 L 388.00 560.00 L 382.00 560.00 L 377.00 556.00 L 363.00 535.00 L 363.00 546.00 L 368.00 562.00 L 360.00 561.00 L 348.00 538.00 L 348.00 529.00 Z M 679.00 515.00 L 683.00 515.00 L 685.00 519.00 L 684.00 531.00 L 679.00 531.00 L 676.00 527.00 Z M 220.00 522.00 L 227.00 515.00 L 235.00 515.00 L 239.00 518.00 L 240.00 525.00 L 234.00 529.00 L 223.00 530.00 Z M 471.00 515.00 L 469.00 521.00 L 446.00 538.00 L 439.00 539.00 L 432.00 530.00 L 432.00 525.00 L 461.00 514.00 Z M 557.00 509.00 L 562.00 510.00 L 562.00 516.00 L 559.00 518.00 L 554.00 517.00 Z M 584.00 508.00 L 608.00 507.00 L 614.00 511.00 L 613.00 516.00 L 596.00 516.00 L 615.00 529.00 L 614.00 534.00 L 599.00 534.00 L 613.00 545.00 L 613.00 551.00 L 608.00 557.00 L 602.00 557.00 L 597.00 553.00 L 579.00 557.00 L 564.00 544.00 L 567.00 525.00 Z M 559.00 483.00 L 565.00 484.00 L 574.00 493.00 L 574.00 504.00 L 568.00 503.00 L 558.00 488.00 Z M 592.00 474.00 L 599.00 476.00 L 609.00 491.00 L 608.00 498.00 L 599.00 496.00 L 591.00 479.00 Z M 759.00 474.00 L 784.00 474.00 L 792.00 477.00 L 797.00 483.00 L 798.00 493.00 L 795.00 499.00 L 782.00 512.00 L 776.00 511.00 L 766.00 486.00 L 758.00 479.00 Z M 564.00 472.00 L 578.00 474.00 L 589.00 486.00 L 592.00 497.00 L 584.00 498.00 L 578.00 488.00 L 564.00 476.00 Z M 581.00 464.00 L 586.00 463.00 L 590.00 471.00 L 585.00 472.00 Z M 550.00 485.00 L 550.00 494.00 L 540.00 515.00 L 516.00 511.00 L 474.00 496.00 L 462.00 495.00 L 406.00 518.00 L 389.00 521.00 L 378.00 514.00 L 374.00 503.00 L 376.00 495.00 L 382.00 491.00 L 466.00 461.00 L 481.00 462.00 L 545.00 480.00 Z M 377.00 440.00 L 373.00 448.00 L 363.00 449.00 L 363.00 441.00 Z M 399.00 434.00 L 400.00 439.00 L 391.00 457.00 L 388.00 472.00 L 380.00 475.00 L 378.00 467.00 L 382.00 453.00 L 391.00 436.00 Z M 460.00 441.00 L 465.00 432.00 L 477.00 433.00 L 504.00 444.00 L 507.00 451.00 L 476.00 445.00 L 461.00 446.00 Z M 426.00 431.00 L 431.00 430.00 L 432.00 435.00 L 427.00 436.00 Z M 455.00 432.00 L 451.00 449.00 L 407.00 465.00 L 400.00 464.00 L 402.00 454.00 L 408.00 446.00 L 445.00 438.00 L 444.00 435.00 L 435.00 435.00 L 435.00 429.00 Z M 772.00 423.00 L 777.00 432.00 L 760.00 458.00 L 755.00 459.00 L 750.00 454.00 L 750.00 448.00 L 766.00 424.00 Z M 327.00 423.00 L 333.00 425.00 L 345.00 442.00 L 354.00 462.00 L 353.00 467.00 L 348.00 466.00 L 326.00 428.00 Z M 748.00 407.00 L 759.00 412.00 L 761.00 419.00 L 740.00 454.00 L 735.00 455.00 L 728.00 443.00 L 727.00 435.00 L 741.00 410.00 Z M 274.00 407.00 L 296.00 406.00 L 303.00 410.00 L 311.00 421.00 L 311.00 442.00 L 299.00 473.00 L 306.00 468.00 L 313.00 455.00 L 319.00 453.00 L 340.00 476.00 L 339.00 482.00 L 330.00 484.00 L 343.00 496.00 L 345.00 492.00 L 340.00 482.00 L 355.00 479.00 L 355.00 488.00 L 346.00 507.00 L 333.00 524.00 L 313.00 542.00 L 307.00 541.00 L 312.00 530.00 L 297.00 534.00 L 290.00 526.00 L 287.00 526.00 L 290.00 540.00 L 285.00 541.00 L 269.00 519.00 L 263.00 516.00 L 262.00 520.00 L 258.00 520.00 L 254.00 515.00 L 256.00 509.00 L 275.00 499.00 L 287.00 488.00 L 287.00 484.00 L 259.00 501.00 L 228.00 509.00 L 209.00 507.00 L 196.00 493.00 L 198.00 473.00 L 211.00 451.00 L 241.00 424.00 Z M 714.00 405.00 L 726.00 405.00 L 722.00 416.00 L 718.00 416.00 L 713.00 410.00 Z M 626.00 420.00 L 658.00 405.00 L 689.00 406.00 L 708.00 422.00 L 713.00 433.00 L 714.00 464.00 L 708.00 490.00 L 718.00 483.00 L 726.00 469.00 L 730.00 469.00 L 738.00 480.00 L 741.00 479.00 L 742.00 472.00 L 747.00 473.00 L 748.00 500.00 L 759.00 495.00 L 763.00 501.00 L 772.00 533.00 L 773.00 554.00 L 766.00 561.00 L 762.00 561.00 L 760.00 548.00 L 750.00 550.00 L 742.00 546.00 L 711.00 514.00 L 708.00 514.00 L 708.00 519.00 L 717.00 532.00 L 719.00 541.00 L 703.00 544.00 L 700.00 548.00 L 734.00 560.00 L 746.00 558.00 L 747.00 563.00 L 763.00 562.00 L 775.00 589.00 L 757.00 595.00 L 757.00 603.00 L 761.00 609.00 L 759.00 615.00 L 735.00 614.00 L 708.00 583.00 L 690.00 572.00 L 692.00 564.00 L 701.00 565.00 L 701.00 562.00 L 680.00 545.00 L 681.00 540.00 L 685.00 540.00 L 693.00 533.00 L 692.00 520.00 L 685.00 502.00 L 680.00 502.00 L 670.00 519.00 L 670.00 538.00 L 647.00 531.00 L 639.00 532.00 L 680.00 553.00 L 681.00 558.00 L 654.00 554.00 L 638.00 554.00 L 635.00 557.00 L 677.00 565.00 L 677.00 571.00 L 650.00 579.00 L 647.00 588.00 L 698.00 612.00 L 696.00 618.00 L 669.00 611.00 L 632.00 591.00 L 627.00 584.00 L 624.00 584.00 L 623.00 590.00 L 618.00 590.00 L 602.00 578.00 L 602.00 573.00 L 619.00 565.00 L 627.00 552.00 L 629.00 516.00 L 659.00 524.00 L 658.00 520.00 L 627.00 501.00 L 628.00 496.00 L 633.00 496.00 L 648.00 504.00 L 645.00 497.00 L 623.00 476.00 L 623.00 464.00 L 633.00 445.00 L 653.00 429.00 L 676.00 428.00 L 687.00 438.00 L 690.00 445.00 L 687.00 487.00 L 691.00 487.00 L 695.00 482.00 L 702.00 463.00 L 703.00 445.00 L 697.00 431.00 L 685.00 420.00 L 666.00 415.00 L 652.00 418.00 L 634.00 429.00 L 619.00 446.00 L 611.00 472.00 L 605.00 473.00 L 598.00 465.00 L 599.00 453.00 L 609.00 436.00 Z M 243.00 404.00 L 244.00 412.00 L 236.00 416.00 L 237.00 405.00 Z M 239.00 388.00 L 240.00 393.00 L 228.00 414.00 L 228.00 423.00 L 222.00 424.00 L 218.00 408.00 L 232.00 390.00 Z M 679.00 389.00 L 694.00 387.00 L 695.00 395.00 L 680.00 394.00 Z M 648.00 388.00 L 653.00 387.00 L 656.00 394.00 L 651.00 395.00 Z M 724.00 381.00 L 748.00 380.00 L 773.00 390.00 L 798.00 411.00 L 805.00 421.00 L 806.00 428.00 L 803.00 431.00 L 796.00 431.00 L 780.00 414.00 L 757.00 400.00 L 739.00 395.00 L 724.00 395.00 Z M 603.00 381.00 L 614.00 396.00 L 618.00 407.00 L 599.00 425.00 L 590.00 439.00 L 580.00 441.00 L 580.00 449.00 L 575.00 450.00 L 553.00 431.00 L 555.00 444.00 L 550.00 445.00 L 544.00 433.00 L 542.00 415.00 L 537.00 424.00 L 537.00 433.00 L 543.00 454.00 L 538.00 455.00 L 527.00 439.00 L 523.00 424.00 L 526.00 409.00 L 536.00 396.00 L 554.00 382.00 L 558.00 382.00 L 559.00 387.00 L 551.00 397.00 L 561.00 395.00 L 577.00 379.00 L 581.00 379.00 L 585.00 390.00 L 584.00 415.00 L 587.00 416.00 L 592.00 399.00 L 592.00 382.00 Z M 614.00 379.00 L 622.00 378.00 L 635.00 391.00 L 637.00 398.00 L 627.00 401.00 L 614.00 383.00 Z M 493.00 384.00 L 493.00 380.00 L 500.00 375.00 L 509.00 378.00 L 508.00 383.00 Z M 307.00 375.00 L 318.00 379.00 L 327.00 391.00 L 328.00 405.00 L 322.00 415.00 L 315.00 413.00 L 317.00 398.00 L 306.00 383.00 Z M 771.00 375.00 L 779.00 372.00 L 791.00 382.00 L 791.00 390.00 L 786.00 391.00 L 774.00 383.00 Z M 261.00 372.00 L 262.00 377.00 L 257.00 386.00 L 258.00 404.00 L 253.00 405.00 L 248.00 398.00 L 247.00 386.00 L 249.00 380.00 L 257.00 372.00 Z M 281.00 368.00 L 281.00 381.00 L 269.00 393.00 L 265.00 393.00 L 264.00 386.00 L 268.00 378.00 L 277.00 368.00 Z M 561.00 362.00 L 564.00 359.00 L 583.00 360.00 L 597.00 364.00 L 598.00 369.00 L 563.00 368.00 Z M 383.00 360.00 L 380.00 371.00 L 373.00 379.00 L 357.00 382.00 L 352.00 378.00 L 354.00 364.00 Z M 781.00 360.00 L 788.00 358.00 L 799.00 365.00 L 800.00 374.00 L 790.00 374.00 L 780.00 366.00 Z M 296.00 357.00 L 301.00 358.00 L 298.00 382.00 L 304.00 394.00 L 302.00 400.00 L 293.00 397.00 L 287.00 388.00 L 289.00 370.00 Z M 499.00 356.00 L 504.00 355.00 L 510.00 361.00 L 510.00 365.00 L 505.00 366.00 L 499.00 360.00 Z M 637.00 354.00 L 644.00 353.00 L 660.00 358.00 L 681.00 370.00 L 683.00 376.00 L 665.00 383.00 L 640.00 366.00 Z M 342.00 352.00 L 345.00 360.00 L 338.00 379.00 L 332.00 381.00 L 322.00 373.00 L 322.00 369.00 L 336.00 352.00 Z M 318.00 351.00 L 318.00 361.00 L 313.00 368.00 L 309.00 368.00 L 311.00 354.00 Z M 699.00 346.00 L 704.00 346.00 L 710.00 355.00 L 715.00 371.00 L 713.00 385.00 L 707.00 384.00 L 698.00 352.00 Z M 453.00 347.00 L 452.00 357.00 L 440.00 362.00 L 440.00 366.00 L 449.00 367.00 L 449.00 380.00 L 438.00 386.00 L 439.00 389.00 L 449.00 390.00 L 451.00 415.00 L 413.00 396.00 L 408.00 398.00 L 427.00 413.00 L 426.00 418.00 L 402.00 408.00 L 404.00 421.00 L 380.00 413.00 L 379.00 421.00 L 364.00 416.00 L 362.00 426.00 L 351.00 428.00 L 338.00 411.00 L 338.00 385.00 L 356.00 393.00 L 370.00 393.00 L 383.00 385.00 L 393.00 364.00 L 402.00 361.00 L 412.00 347.00 Z M 791.00 344.00 L 797.00 343.00 L 808.00 351.00 L 808.00 358.00 L 801.00 359.00 L 791.00 353.00 Z M 552.00 344.00 L 557.00 353.00 L 544.00 360.00 L 542.00 364.00 L 547.00 374.00 L 520.00 394.00 L 508.00 413.00 L 507.00 422.00 L 502.00 423.00 L 502.00 392.00 L 518.00 385.00 L 520.00 379.00 L 517.00 372.00 L 526.00 364.00 L 525.00 358.00 L 518.00 358.00 L 511.00 351.00 L 511.00 341.00 L 522.00 338.00 Z M 493.00 333.00 L 499.00 338.00 L 499.00 342.00 L 487.00 352.00 L 487.00 359.00 L 492.00 364.00 L 493.00 371.00 L 481.00 382.00 L 484.00 389.00 L 492.00 392.00 L 491.00 421.00 L 486.00 422.00 L 482.00 415.00 L 472.00 411.00 L 471.00 418.00 L 465.00 419.00 L 457.00 399.00 L 457.00 389.00 L 467.00 385.00 L 466.00 382.00 L 457.00 380.00 L 458.00 368.00 L 468.00 364.00 L 463.00 359.00 L 464.00 349.00 L 467.00 344.00 Z M 799.00 332.00 L 810.00 331.00 L 815.00 336.00 L 815.00 342.00 L 808.00 343.00 L 801.00 339.00 Z M 645.00 330.00 L 657.00 331.00 L 682.00 344.00 L 690.00 352.00 L 692.00 362.00 L 686.00 363.00 L 663.00 350.00 L 643.00 343.00 Z M 588.00 328.00 L 601.00 330.00 L 598.00 354.00 L 591.00 354.00 L 588.00 350.00 Z M 558.00 326.00 L 571.00 325.00 L 579.00 329.00 L 581.00 353.00 L 567.00 348.00 L 556.00 332.00 Z M 626.00 318.00 L 635.00 325.00 L 635.00 329.00 L 619.00 354.00 L 608.00 355.00 L 607.00 349.00 L 615.00 336.00 L 611.00 322.00 L 618.00 318.00 Z M 653.00 318.00 L 667.00 316.00 L 675.00 324.00 L 676.00 330.00 L 671.00 331.00 L 655.00 324.00 Z M 722.00 315.00 L 739.00 316.00 L 744.00 319.00 L 744.00 326.00 L 738.00 337.00 L 734.00 337.00 L 720.00 324.00 L 719.00 318.00 Z M 687.00 317.00 L 696.00 314.00 L 721.00 334.00 L 740.00 356.00 L 745.00 370.00 L 734.00 370.00 L 710.00 343.00 L 690.00 328.00 Z M 578.00 315.00 L 595.00 315.00 L 596.00 320.00 L 579.00 320.00 Z M 518.00 316.00 L 526.00 314.00 L 548.00 317.00 L 548.00 331.00 L 520.00 331.00 L 517.00 329.00 Z M 504.00 313.00 L 510.00 314.00 L 510.00 328.00 L 496.00 329.00 L 495.00 324.00 Z M 407.00 311.00 L 398.00 344.00 L 393.00 351.00 L 356.00 354.00 L 353.00 351.00 L 361.00 326.00 L 369.00 312.00 L 379.00 309.00 Z M 802.00 316.00 L 812.00 308.00 L 822.00 309.00 L 833.00 319.00 L 834.00 330.00 L 826.00 333.00 L 813.00 325.00 L 803.00 324.00 Z M 284.00 291.00 L 280.00 324.00 L 288.00 345.00 L 278.00 349.00 L 264.00 332.00 L 270.00 352.00 L 267.00 359.00 L 238.00 375.00 L 215.00 373.00 L 209.00 358.00 L 209.00 351.00 L 215.00 341.00 L 214.00 330.00 L 208.00 324.00 L 199.00 324.00 L 193.00 309.00 L 200.00 308.00 L 242.00 326.00 L 255.00 325.00 L 251.00 321.00 L 201.00 302.00 L 200.00 297.00 L 224.00 292.00 Z M 694.00 294.00 L 699.00 285.00 L 708.00 285.00 L 725.00 292.00 L 733.00 299.00 L 733.00 303.00 L 694.00 298.00 Z M 756.00 282.00 L 772.00 283.00 L 777.00 290.00 L 776.00 301.00 L 770.00 302.00 L 756.00 286.00 Z M 727.00 281.00 L 739.00 281.00 L 759.00 296.00 L 766.00 309.00 L 764.00 321.00 L 760.00 321.00 L 726.00 286.00 Z M 541.00 269.00 L 542.00 275.00 L 537.00 289.00 L 538.00 307.00 L 531.00 308.00 L 524.00 302.00 L 524.00 283.00 L 533.00 271.00 Z M 700.00 271.00 L 702.00 268.00 L 712.00 270.00 L 712.00 275.00 L 701.00 277.00 Z M 568.00 267.00 L 573.00 268.00 L 573.00 303.00 L 567.00 301.00 L 564.00 289.00 Z M 554.00 267.00 L 559.00 268.00 L 557.00 294.00 L 560.00 310.00 L 552.00 309.00 L 545.00 299.00 L 547.00 277.00 Z M 741.00 268.00 L 744.00 263.00 L 754.00 264.00 L 765.00 269.00 L 767.00 275.00 L 745.00 275.00 L 741.00 273.00 Z M 625.00 251.00 L 622.00 269.00 L 610.00 275.00 L 610.00 278.00 L 620.00 280.00 L 634.00 298.00 L 634.00 302.00 L 597.00 305.00 L 587.00 303.00 L 580.00 289.00 L 581.00 278.00 L 601.00 270.00 L 588.00 269.00 L 587.00 263.00 L 603.00 255.00 Z M 699.00 251.00 L 718.00 252.00 L 727.00 257.00 L 732.00 266.00 L 725.00 267.00 L 701.00 258.00 Z M 746.00 253.00 L 751.00 249.00 L 770.00 252.00 L 786.00 265.00 L 787.00 273.00 L 781.00 275.00 L 766.00 263.00 L 747.00 258.00 Z M 315.00 246.00 L 315.00 250.00 L 291.00 279.00 L 250.00 279.00 L 242.00 268.00 L 243.00 263.00 L 300.00 247.00 Z M 667.00 236.00 L 685.00 250.00 L 689.00 260.00 L 688.00 276.00 L 683.00 286.00 L 671.00 298.00 L 659.00 303.00 L 648.00 302.00 L 632.00 288.00 L 628.00 269.00 L 636.00 251.00 L 646.00 240.00 L 654.00 236.00 Z M 294.00 328.00 L 294.00 307.00 L 305.00 282.00 L 313.00 272.00 L 322.00 271.00 L 329.00 256.00 L 347.00 241.00 L 353.00 241.00 L 354.00 246.00 L 344.00 259.00 L 335.00 265.00 L 335.00 268.00 L 339.00 269.00 L 335.00 281.00 L 325.00 286.00 L 326.00 289.00 L 333.00 291.00 L 333.00 303.00 L 339.00 310.00 L 343.00 290.00 L 360.00 285.00 L 357.00 281.00 L 349.00 280.00 L 349.00 273.00 L 356.00 267.00 L 371.00 263.00 L 363.00 259.00 L 362.00 254.00 L 376.00 241.00 L 405.00 227.00 L 427.00 222.00 L 467.00 222.00 L 482.00 225.00 L 482.00 230.00 L 466.00 251.00 L 455.00 256.00 L 455.00 259.00 L 460.00 261.00 L 459.00 269.00 L 453.00 279.00 L 445.00 282.00 L 452.00 286.00 L 449.00 309.00 L 455.00 304.00 L 461.00 288.00 L 474.00 284.00 L 474.00 281.00 L 466.00 279.00 L 468.00 270.00 L 474.00 260.00 L 486.00 257.00 L 480.00 253.00 L 480.00 249.00 L 496.00 234.00 L 516.00 230.00 L 518.00 236.00 L 502.00 257.00 L 476.00 301.00 L 477.00 305.00 L 481.00 305.00 L 494.00 288.00 L 497.00 273.00 L 505.00 267.00 L 517.00 248.00 L 536.00 231.00 L 553.00 225.00 L 575.00 225.00 L 587.00 229.00 L 599.00 240.00 L 599.00 244.00 L 593.00 246.00 L 586.00 238.00 L 575.00 232.00 L 559.00 231.00 L 539.00 241.00 L 519.00 265.00 L 489.00 317.00 L 482.00 325.00 L 468.00 332.00 L 413.00 334.00 L 412.00 326.00 L 416.00 319.00 L 445.00 319.00 L 447.00 315.00 L 441.00 312.00 L 416.00 312.00 L 414.00 305.00 L 407.00 302.00 L 367.00 304.00 L 360.00 308.00 L 353.00 320.00 L 339.00 324.00 L 313.00 319.00 L 311.00 303.00 L 318.00 279.00 L 313.00 281.00 L 306.00 296.00 L 301.00 323.00 L 313.00 329.00 L 350.00 327.00 L 351.00 332.00 L 344.00 339.00 L 308.00 339.00 L 301.00 337.00 Z M 365.00 202.00 L 364.00 224.00 L 350.00 227.00 L 349.00 222.00 L 354.00 209.00 L 359.00 203.00 Z M 779.00 198.00 L 794.00 200.00 L 805.00 206.00 L 804.00 213.00 L 785.00 248.00 L 764.00 240.00 L 771.00 214.00 Z M 391.00 188.00 L 388.00 219.00 L 378.00 221.00 L 376.00 211.00 L 380.00 197.00 L 385.00 189.00 Z M 563.00 154.00 L 564.00 160.00 L 559.00 170.00 L 556.00 189.00 L 559.00 214.00 L 545.00 216.00 L 540.00 201.00 L 542.00 179.00 L 550.00 163.00 L 559.00 154.00 Z M 541.00 151.00 L 528.00 180.00 L 527.00 218.00 L 466.00 208.00 L 401.00 213.00 L 404.00 194.00 L 414.00 180.00 L 419.00 181.00 L 419.00 195.00 L 445.00 175.00 L 480.00 159.00 L 514.00 151.00 Z M 625.00 160.00 L 641.00 149.00 L 668.00 142.00 L 692.00 141.00 L 712.00 148.00 L 725.00 161.00 L 732.00 176.00 L 734.00 197.00 L 729.00 217.00 L 713.00 236.00 L 708.00 235.00 L 722.00 208.00 L 722.00 177.00 L 710.00 157.00 L 701.00 151.00 L 685.00 148.00 L 668.00 155.00 L 657.00 168.00 L 652.00 181.00 L 652.00 199.00 L 658.00 211.00 L 669.00 219.00 L 681.00 220.00 L 689.00 217.00 L 699.00 200.00 L 699.00 188.00 L 695.00 179.00 L 688.00 174.00 L 678.00 179.00 L 677.00 192.00 L 686.00 195.00 L 682.00 205.00 L 674.00 205.00 L 668.00 200.00 L 666.00 183.00 L 675.00 167.00 L 691.00 162.00 L 703.00 170.00 L 709.00 183.00 L 709.00 202.00 L 705.00 213.00 L 685.00 233.00 L 667.00 227.00 L 655.00 227.00 L 644.00 232.00 L 633.00 230.00 L 621.00 218.00 L 614.00 199.00 L 615.00 177.00 Z M 624.00 135.00 L 625.00 140.00 L 611.00 154.00 L 602.00 171.00 L 600.00 201.00 L 607.00 224.00 L 602.00 225.00 L 576.00 212.00 L 571.00 197.00 L 572.00 175.00 L 578.00 160.00 L 594.00 142.00 Z M 332.00 110.00 L 326.00 116.00 L 331.00 138.00 L 343.00 164.00 L 352.00 167.00 L 356.00 159.00 L 344.00 119.00 L 338.00 110.00 Z" fill="#000000" fill-rule="evenodd"/>
</svg>
